<svg width="32" height="32" viewBox="0 0 32 32" fill="none" xmlns="http://www.w3.org/2000/svg">
  <!-- Círculo de fondo con gradiente -->
  <circle cx="16" cy="16" r="14" fill="url(#gradientBg)" fill-opacity="0.1"/>
  
  <!-- Flecha elegante -->
  <g transform="translate(8, 8)">
    <!-- Cuerpo de la flecha -->
    <path d="M12 0 L8 4 L10 4 L10 8 L2 8 L2 10 L10 10 L10 14 L8 14 L12 18 L16 14 L14 14 L14 10 L22 10 L22 8 L14 8 L14 4 L16 4 L12 0" 
          fill="url(#gradientArrow)"
          transform="translate(-8, -8)"/>
    
    <!-- Sombra/efecto 3D -->
    <path d="M12 2 L9 5 L10.5 5 L10.5 8.5 L3.5 8.5 L3.5 9.5 L10.5 9.5 L10.5 13 L9 13 L12 16 L15 13 L13.5 13 L13.5 9.5 L20.5 9.5 L20.5 8.5 L13.5 8.5 L13.5 5 L15 5 L12 2" 
          fill="url(#gradientShadow)"
          transform="translate(-8, -8)"
          fill-opacity="0.3"/>
  </g>
  
  <!-- Definiciones de gradientes -->
  <defs>
    <linearGradient id="gradientBg" x1="0%" y1="0%" x2="100%" y2="100%">
      <stop offset="0%" style="stop-color:#6366F1"/>
      <stop offset="100%" style="stop-color:#4F46E5"/>
    </linearGradient>
    <linearGradient id="gradientArrow" x1="0%" y1="0%" x2="100%" y2="100%">
      <stop offset="0%" style="stop-color:#6366F1"/>
      <stop offset="100%" style="stop-color:#4F46E5"/>
    </linearGradient>
    <linearGradient id="gradientShadow" x1="0%" y1="0%" x2="100%" y2="100%">
      <stop offset="0%" style="stop-color:#818CF8"/>
      <stop offset="100%" style="stop-color:#6366F1"/>
    </linearGradient>
  </defs>
</svg>
